<svg xmlns="http://www.w3.org/200/svg" class="sprite">   
    <svg xmlns="http://www.w3.org/200/svg" id="bike" viewBox="0 0 24 24">
        <path fill="#ffb700" d="M15.5 5.5c1.1 0 2-.9 2-2s-.9-2-2-2-2 .9-2 2 .9 2 2 2zM5 12c-2.8 0-5 2.2-5 5s2.2 5 5 5 5-2.2 5-5-2.2-5-5-5zm0 8.5c-1.9 0-3.5-1.6-3.5-3.5s1.6-3.5 3.5-3.5 3.5 1.6 3.5 3.5-1.6 3.5-3.5 3.5zm5.8-10l2.4-2.4.8.8c1.06 1.06 2.38 1.78 3.96 2.02.6.09 1.14-.39 1.14-1 0-.49-.37-.91-.85-.99-1.11-.18-2.02-.71-2.75-1.43l-1.9-1.9c-.5-.4-1-.6-1.6-.6s-1.1.2-1.4.6L7.8 8.4c-.4.4-.6.9-.6 1.4 0 .6.2 1.1.6 1.4L11 14v4c0 .55.45 1 1 1s1-.45 1-1v-4.4c0-.52-.2-1.01-.55-1.38L10.8 10.5zM19 12c-2.8 0-5 2.2-5 5s2.2 5 5 5 5-2.2 5-5-2.2-5-5-5zm0 8.5c-1.9 0-3.5-1.6-3.5-3.5s1.6-3.5 3.5-3.5 3.5 1.6 3.5 3.5-1.6 3.5-3.5 3.5z"/>
    </svg>
    <svg xmlns="http://www.w3.org/200/svg" id="message" viewBox="0 0 32 32">
        <path fill="#ffb700" d="M9 29c-.6 0-1-.4-1-1v-5H7c-1.7 0-3-1.3-3-3V5c0-1.7 1.3-3 3-3h18c1.7 0 3 1.3 3 3v15c0 1.7-1.3 3-3 3H14.5l-4.7 5.6c-.2.3-.5.4-.8.4zM7 4c-.6 0-1 .4-1 1v15c0 .6.4 1 1 1h2c.6 0 1 .4 1 1v3.2l3.2-3.9c.2-.2.5-.4.8-.4h11c.6 0 1-.4 1-1V5c0-.6-.4-1-1-1H7z"/>
        <path fill="#ffb700" d="M21 19H11c-.6 0-1-.4-1-1 0-3.3 2.7-6 6-6s6 2.7 6 6c0 .6-.4 1-1 1zm-8.9-2h7.7c-.6-2.1-2.7-3.4-4.9-2.9-1.3.4-2.4 1.5-2.8 2.9zm3.9-6c-1.7 0-3-1.3-3-3s1.3-3 3-3 3 1.3 3 3-1.3 3-3 3zm0-4c-.6 0-1 1-1-.4-1-1-1z"/>
        <path fill="#ffb700" d="M21 19H11c-.6 0-1-.4-1-1 0-3.3 2.7-6 6-6s6 2.7 6 6c0 .6-.4 1-1 1zm-8.9-2h7.7c-.6-2.1-2.7-3.4"/>
    </svg>
    <svg xmlns="http://www.w3.org/200/svg" id="circle" viewBox="0 0 200 200">
        <circle cx="100" cy="100" r="80" stroke-width="15" stroke="#ffb700" fill="none" pathLength="110" stroke-dasharray="7" stroke-dashoffset="20"/>
        <circle cx="100" cy="100" r="40" fill="#ffb700">
    </svg>
</svg>